<?xml version="1.0" encoding="iso-8859-1"?>
<!-- Generator: Adobe Illustrator 19.0.0, SVG Export Plug-In . SVG Version: 6.00 Build 0)  -->
<svg version="1.1" id="Layer_1" xmlns="http://www.w3.org/2000/svg" xmlns:xlink="http://www.w3.org/1999/xlink" x="0px" y="0px"
	 viewBox="0 0 297 297" style="enable-background:new 0 0 297 297;" xml:space="preserve">
<g>
	<g>
		<g>
			<g>
				<circle style="fill:#E3E5E4;" cx="148.5" cy="148.5" r="148.5"/>
			</g>
		</g>
	</g>
	<path style="fill:#929DA5;" d="M217.761,120.331L49.5,198l99,99c66.562,0,122.894-43.794,141.758-104.139L217.761,120.331z"/>
	<g>
		<path style="fill:#C63C22;" d="M249.688,198h-72.395v-82.5h28.48c6.549,0,12.536,3.7,15.465,9.558l11.721,23.442l15.036,11.434
			c5.105,3.149,8.213,8.718,8.213,14.716v16.83C256.208,195.081,253.289,198,249.688,198z"/>
	</g>
	<g>
		<path style="fill:#F86E51;" d="M181.5,198h-132V95.166c0-6.996,5.671-12.666,12.667-12.666h106.667
			c6.996,0,12.667,5.671,12.667,12.666V198H181.5z"/>
	</g>
	<g>
		<path style="fill:#DD523C;" d="M181.5,95.167c0-6.996-5.671-12.667-12.667-12.667h-21.167V198H181.5V95.167z"/>
	</g>
	<g>
		<path style="fill:#D0D5D9;" d="M212.597,126.195L224,149h-33v-27h14.81C208.684,122,211.312,123.624,212.597,126.195z"/>
	</g>
	<g>
		<circle style="fill:#32373B;" cx="89.291" cy="198" r="23.291"/>
	</g>
	<g>
		<circle style="fill:#484F54;" cx="89.291" cy="198" r="9"/>
	</g>
	<g>
		<circle style="fill:#32373B;" cx="221.291" cy="198" r="23.291"/>
	</g>
	<g>
		<circle style="fill:#484F54;" cx="221.292" cy="198" r="9"/>
	</g>
</g>
<g>
</g>
<g>
</g>
<g>
</g>
<g>
</g>
<g>
</g>
<g>
</g>
<g>
</g>
<g>
</g>
<g>
</g>
<g>
</g>
<g>
</g>
<g>
</g>
<g>
</g>
<g>
</g>
<g>
</g>
</svg>
