<?xml version="1.0" encoding="iso-8859-1"?>
<!-- Generator: Adobe Illustrator 19.0.0, SVG Export Plug-In . SVG Version: 6.00 Build 0)  -->
<svg version="1.1" id="Layer_1" xmlns="http://www.w3.org/2000/svg" xmlns:xlink="http://www.w3.org/1999/xlink" x="0px" y="0px"
	 viewBox="0 0 512 512" style="enable-background:new 0 0 512 512;" xml:space="preserve">
<g>
	<path style="fill:#FEC986;" d="M260.068,121.757c0-44.933-36.427-81.36-81.36-81.36c-44.934,0-81.36,36.427-81.36,81.36v17.964
		h162.72V121.757z"/>
	<circle style="fill:#FEC986;" cx="487.872" cy="178.709" r="16.272"/>
</g>
<g>
	<circle style="fill:#C8546F;" cx="386.179" cy="475.675" r="28.478"/>
	<circle style="fill:#C8546F;" cx="68.873" cy="475.675" r="28.478"/>
</g>
<rect x="7.852" y="390.241" style="fill:#FEB860;" width="382.389" height="32.54"/>
<rect x="72.943" y="129.888" style="fill:#9B4573;" width="211.532" height="32.54"/>
<path style="fill:#C8546F;" d="M7.852,317.02V162.436h406.799V317.02c0,0-103.71-36.538-189.063,0S7.852,317.02,7.852,317.02z"/>
<polygon style="fill:#9B4573;" points="414.652,317.02 357.699,304.061 357.699,162.436 414.652,162.436 "/>
<g>
	<path style="fill:#1D1D1B;" d="M411.957,324.396l10.547,3.862V154.585H0v168.202l5.501,1.726
		c0.696,0.218,10.699,3.322,27.044,6.762v51.117H0v48.248h32.544v45.032c0,20.032,16.296,36.328,36.328,36.328
		s36.328-16.296,36.328-36.328c0-20.031-16.296-36.328-36.328-36.328c-7.656,0-14.76,2.386-20.623,6.445V430.64h301.598v45.032
		c0,20.032,16.296,36.328,36.328,36.328s36.328-16.296,36.328-36.328c0-20.031-16.296-36.328-36.328-36.328
		c-7.656,0-14.761,2.386-20.623,6.445V430.64h32.544v-48.248h-32.544v-69.06C393.486,317.812,411.544,324.246,411.957,324.396z
		 M68.873,455.048c11.371,0,20.623,9.251,20.623,20.623c0,11.372-9.252,20.623-20.623,20.623c-11.371,0-20.623-9.251-20.623-20.623
		C48.249,464.3,57.501,455.048,68.873,455.048z M386.176,455.048c11.371,0,20.623,9.251,20.623,20.623
		c0,11.372-9.252,20.623-20.623,20.623c-11.371,0-20.623-9.251-20.623-20.623C365.551,464.3,374.804,455.048,386.176,455.048z
		 M15.705,170.288h391.095v136.006c-10.735-3.103-29.045-7.646-52.208-10.472c-62.069-7.576-109.249,3.338-137.902,13.824
		c-1.899,0.695-3.808,1.353-5.721,1.993v-10.892h-15.705v15.525c-5.595,1.44-11.216,2.675-16.84,3.72v-27.38H162.72v29.831
		c-5.644,0.719-11.266,1.271-16.839,1.67v-55.909h-15.705v56.658c-52.953,1.299-99.025-9.623-114.472-13.777V170.288z
		 M382.391,414.935H15.705v-16.839h366.686V414.935z M349.847,382.391H48.249v-48.108c8.385,1.452,17.756,2.832,27.895,3.945
		c15.958,1.753,30.829,2.512,44.615,2.512c45.608,0,79.343-8.299,101.329-16.347c45.994-16.835,92.356-17.219,127.759-13.209
		V382.391z"/>
	<rect x="72.943" y="130.171" style="fill:#1D1D1B;" width="211.532" height="15.705"/>
	<path style="fill:#1D1D1B;" d="M487.875,154.584c-10.554,0-19.54,6.815-22.805,16.272h-34.146v15.705h34.146
		c3.267,9.457,12.252,16.272,22.805,16.272c13.302,0,24.125-10.822,24.125-24.125C512,165.406,501.177,154.584,487.875,154.584z
		 M487.875,187.128c-3.906,0-7.19-2.677-8.136-6.291v-4.257c0.946-3.613,4.23-6.29,8.136-6.29c4.643,0,8.42,3.776,8.42,8.42
		C496.295,183.352,492.519,187.128,487.875,187.128z"/>
	<path style="fill:#1D1D1B;" d="M186.561,32.91V15.705h8.42V0h-32.544v15.705h8.42V32.91c-45.525,3.992-81.36,42.302-81.36,88.847
		h15.705c0-40.532,32.976-73.508,73.508-73.508s73.508,32.976,73.508,73.508h15.705C267.92,75.212,232.086,36.902,186.561,32.91z"/>
</g>
<g>
</g>
<g>
</g>
<g>
</g>
<g>
</g>
<g>
</g>
<g>
</g>
<g>
</g>
<g>
</g>
<g>
</g>
<g>
</g>
<g>
</g>
<g>
</g>
<g>
</g>
<g>
</g>
<g>
</g>
</svg>
