<?xml version="1.0" encoding="iso-8859-1"?>
<!-- Generator: Adobe Illustrator 19.0.0, SVG Export Plug-In . SVG Version: 6.00 Build 0)  -->
<svg version="1.1" id="Layer_1" xmlns="http://www.w3.org/2000/svg" xmlns:xlink="http://www.w3.org/1999/xlink" x="0px" y="0px"
	 viewBox="0 0 512 512" style="enable-background:new 0 0 512 512;" xml:space="preserve">
<circle style="fill:#273B7A;" cx="256" cy="256" r="256"/>
<path style="fill:#121149;" d="M509.061,294.912L401.67,187.521l-55.998,44.485l-89.784-89.784l-8.614,3.1l-44.335-40.696
	l-12.543,26.926l124.726,124.726l-24.466,19.437l-1.183-1.183l-61.185,35.354l-0.088-0.088L96.356,347.929l24.204,24.204
	l-17.318,10.007l122.994,128.128C236.003,511.398,245.931,512,256,512C384.155,512,490.315,417.83,509.061,294.912z"/>
<path style="fill:#FFFFFF;" d="M123.147,192.379c0-41.893,33.961-75.854,75.854-75.854s75.854,33.961,75.854,75.854H123.147z"/>
<circle style="fill:#D0D1D3;" cx="199.008" cy="109.347" r="6.151"/>
<path style="fill:#FEE187;" d="M393.051,366.78h-18.101V264.208h-20.687V366.78h-202.99V264.208h-20.687V366.78h-21.98
	c-4.76,0-8.62,3.86-8.62,8.62c0,4.76,3.86,8.62,8.62,8.62h284.444c4.76,0,8.62-3.86,8.62-8.62
	C401.67,370.64,397.81,366.78,393.051,366.78z"/>
<path style="fill:#FFC61B;" d="M393.051,366.78h-18.101V264.208h-20.687V366.78h-98.837v17.239h137.625c4.76,0,8.62-3.86,8.62-8.62
	C401.67,370.64,397.81,366.78,393.051,366.78z"/>
<path style="fill:#FF7F4F;" d="M407.273,323.781v-120.82c0-13.303-10.783-24.086-24.086-24.086H118.47
	c-13.303,0-24.086,10.783-24.086,24.086v139.393c0,4.308,3.093,8.013,7.34,8.728c19.834,3.341,78.758,8.14,163.326-29.986
	c68.279-30.782,107.851-9.599,127.209,9.045C397.895,335.572,407.273,331.607,407.273,323.781z"/>
<path style="fill:#D35933;" d="M383.186,178.874h-127.76v146.41c3.174-1.341,6.373-2.722,9.625-4.187
	c68.279-30.782,107.851-9.599,127.209,9.045c5.637,5.429,15.013,1.465,15.013-6.361v-120.82
	C407.273,189.659,396.488,178.874,383.186,178.874z"/>
<circle style="fill:#FFC61B;" cx="140.929" cy="394.361" r="21.333"/>
<circle style="fill:#EAA22F;" cx="364.606" cy="394.361" r="21.333"/>
<g>
</g>
<g>
</g>
<g>
</g>
<g>
</g>
<g>
</g>
<g>
</g>
<g>
</g>
<g>
</g>
<g>
</g>
<g>
</g>
<g>
</g>
<g>
</g>
<g>
</g>
<g>
</g>
<g>
</g>
</svg>
