<?xml version="1.0" encoding="iso-8859-1"?>
<!-- Generator: Adobe Illustrator 19.1.0, SVG Export Plug-In . SVG Version: 6.00 Build 0)  -->
<svg version="1.1" id="Capa_1" xmlns="http://www.w3.org/2000/svg" xmlns:xlink="http://www.w3.org/1999/xlink" x="0px" y="0px"
	 viewBox="0 0 298 298" style="enable-background:new 0 0 298 298;" xml:space="preserve">
<g>
	<path style="fill:#F0FBF8;" d="M149.25,58.75C90.447,58.75,42.554,106.457,42.013,165h214.475
		C255.946,106.457,208.053,58.75,149.25,58.75z M142.364,89.966c-28.415,1.322-55.584,22.762-66.07,52.137
		c-1.168,3.273-4.248,5.312-7.534,5.312c-0.893,0-1.801-0.15-2.69-0.468c-4.161-1.485-6.33-6.062-4.845-10.224
		c12.811-35.886,45.118-61.099,80.395-62.74c4.454-0.201,8.158,3.206,8.363,7.619C150.189,86.017,146.777,89.761,142.364,89.966z"/>
	<path style="fill:#B4EBDD;" d="M272.583,181h-246.5c-4.825,0-9.083,3.925-9.083,8.75v0.5c0,4.825,4.258,8.75,9.083,8.75h53.26
		h139.98h53.26c4.825,0,8.417-3.925,8.417-8.75v-0.5C281,184.925,277.408,181,272.583,181z"/>
	<path d="M272.583,165h-0.096C271.969,100.173,221,47.176,157,43.021V29.835c5-2.771,8.167-7.929,8.167-13.835
		c0-8.822-7.094-16-15.917-16c-8.822,0-16.125,7.178-16.125,16c0,5.906,3.875,11.063,7.875,13.835v13.177
		c-64,4.072-114.803,57.107-115.32,121.99C12.064,165.04,1,176.126,1,189.75v0.5C1,203.898,12.436,215,26.083,215h27.393
		c-1.372,3.055-2.133,6.492-2.133,10c0,14.287,12.561,26,28,26h54.622c6.617,0,12.035,5.202,12.035,11.819V298h101v-71
		c0-4.292-0.65-8.36-2.384-12h27.967C286.23,215,297,203.898,297,190.25v-0.5C297,176.102,286.23,165,272.583,165z M149.25,58.75
		c58.803,0,106.696,47.707,107.237,106.25H42.013C42.554,106.457,90.447,58.75,149.25,58.75z M231,282h-69v-19.181
		C162,247.38,149.404,235,133.965,235H79.343c-6.505,0-12-4.629-12-10s5.495-10,12-10h139.98c6.617,0,11.677,5.383,11.677,12V282z
		 M281,190.25c0,4.825-3.592,8.75-8.417,8.75h-53.26H79.343h-53.26c-4.825,0-9.083-3.925-9.083-8.75v-0.5
		c0-4.825,4.258-8.75,9.083-8.75h246.5c4.825,0,8.417,3.925,8.417,8.75V190.25z"/>
	<path style="fill:#FFD5B0;" d="M219.323,215H79.343c-6.505,0-12,4.629-12,10s5.495,10,12,10h54.622
		C149.404,235,162,247.38,162,262.819V282h69v-55C231,220.383,225.94,215,219.323,215z"/>
	<path d="M141.62,73.983c-35.276,1.642-67.584,26.854-80.395,62.74c-1.485,4.161,0.684,8.738,4.845,10.224
		c0.889,0.317,1.797,0.468,2.69,0.468c3.286,0,6.366-2.04,7.534-5.312c10.486-29.375,37.655-50.814,66.07-52.137
		c4.413-0.205,7.824-3.949,7.619-8.363C149.778,77.189,146.074,73.782,141.62,73.983z"/>
</g>
<g>
</g>
<g>
</g>
<g>
</g>
<g>
</g>
<g>
</g>
<g>
</g>
<g>
</g>
<g>
</g>
<g>
</g>
<g>
</g>
<g>
</g>
<g>
</g>
<g>
</g>
<g>
</g>
<g>
</g>
</svg>
