<?xml version="1.0" encoding="iso-8859-1"?>
<!-- Generator: Adobe Illustrator 19.0.0, SVG Export Plug-In . SVG Version: 6.00 Build 0)  -->
<svg version="1.1" id="Layer_1" xmlns="http://www.w3.org/2000/svg" xmlns:xlink="http://www.w3.org/1999/xlink" x="0px" y="0px"
	 viewBox="0 0 480 480" style="enable-background:new 0 0 480 480;" xml:space="preserve">
<path style="fill:#F9FDFE;" d="M424,296.64V336H40v-39.36c0-105.92,86.72-191.84,192.64-192C338.56,104.72,424,190.72,424,296.64z"
	/>
<path style="fill:#E7EDEF;" d="M244.688,105.064c-3.992-0.248-8-0.424-12.048-0.424C126.72,104.8,40,190.72,40,296.64V336h24v-39.36
	C64,194.736,144.28,111.384,244.688,105.064z"/>
<path style="fill:#F9FDFE;" d="M264,86.96V104h-48V86.96c0-13.2,10.72-23.92,24-23.92c6.64,0,12.64,2.72,16.96,7.04
	C261.28,74.4,264,80.32,264,86.96z"/>
<path style="fill:#E7EDEF;" d="M247.976,64.512c-2.504-0.896-5.16-1.472-7.976-1.472c-13.28,0-24,10.72-24,23.92V104h16V86.96
	C232,76.576,238.68,67.816,247.976,64.512z"/>
<g>
	<path style="fill:#EBEFF0;" d="M176,192h-40c-4.416,0-8-3.584-8-8s3.584-8,8-8h40c4.416,0,8,3.584,8,8S180.416,192,176,192z"/>
	<path style="fill:#EBEFF0;" d="M208,192c-2.08,0-4.16-0.88-5.68-2.32c-1.44-1.52-2.32-3.52-2.32-5.68c0-2.08,0.88-4.16,2.32-5.68
		c0.4-0.32,0.8-0.64,1.28-0.96c0.4-0.32,0.88-0.56,1.36-0.72c0.48-0.24,0.96-0.4,1.44-0.48c1.6-0.32,3.2-0.16,4.64,0.48
		c0.96,0.4,1.84,0.96,2.64,1.68c1.44,1.52,2.32,3.6,2.32,5.68c0,0.56-0.08,1.04-0.16,1.6c-0.08,0.48-0.24,0.96-0.48,1.44
		c-0.16,0.48-0.4,0.96-0.72,1.44c-0.24,0.4-0.64,0.8-0.96,1.2c-0.8,0.72-1.68,1.28-2.64,1.68C210.08,191.76,209.04,192,208,192z"/>
</g>
<path style="fill:#F9FDFE;" d="M312,336v48H8v-32c0-8.8,7.2-16,16-16H312z"/>
<path style="fill:#EFF2F3;" d="M48,336H24c-8.8,0-16,7.2-16,16v32h24v-32C32,343.2,39.2,336,48,336z"/>
<path style="fill:#F9FDFE;" d="M472,352v32h-64v-48h48C464.8,336,472,343.2,472,352z"/>
<path style="fill:#132C47;" d="M456,328h-24v-31.36c0-96.688-68.856-177.6-160-196.04V86.96c0-8.488-3.336-16.488-9.384-22.544
	C256.56,58.368,248.528,55.04,240,55.04c-17.648,0-32,14.32-32,31.92v11.272c-99.04,12.288-176,96.6-176,198.408V328h-8
	c-13.232,0-24,10.768-24,24v32c0,4.416,3.584,8,8,8h304c4.416,0,8-3.584,8-8v-40h80v40c0,4.416,3.584,8,8,8h64c4.416,0,8-3.584,8-8
	v-32C480,338.768,469.232,328,456,328z M224,86.96c0-8.784,7.176-15.92,16-15.92c4.256,0,8.272,1.664,11.304,4.696
	C254.336,78.76,256,82.752,256,86.96V96h-32V86.96z M48,296.64c0-101.304,82.832-183.848,184.632-184
	C333.744,112.712,416,195.256,416,296.64V328h-8h-96H48V296.64z M304,376H16v-24c0-4.408,3.592-8,8-8h16h264V376z M464,376h-48v-32
	h8h32c4.408,0,8,3.592,8,8V376z"/>
<polygon style="fill:#F95754;" points="408,336 408,456 360,424 312,456 312,336 360,336 "/>
<path style="fill:#132C47;" d="M408,464c-1.552,0-3.096-0.448-4.44-1.344L360,433.616l-43.56,29.04
	c-2.464,1.632-5.624,1.792-8.208,0.4C305.624,461.664,304,458.952,304,456V336c0-4.416,3.584-8,8-8h96c4.416,0,8,3.584,8,8v120
	c0,2.952-1.624,5.664-4.224,7.056C410.592,463.688,409.296,464,408,464z M360,416c1.544,0,3.096,0.448,4.44,1.344L400,441.048V344
	h-80v97.048l35.56-23.704C356.904,416.448,358.456,416,360,416z"/>
<polygon style="fill:#F95754;" points="408,336 408,456 360,424 312,456 312,336 360,336 "/>
<polygon style="fill:#BB413F;" points="336,336 312,336 312,456 336,440 "/>
<path style="fill:#132C47;" d="M408,464c-1.552,0-3.096-0.448-4.44-1.344L360,433.616l-43.56,29.04
	c-2.464,1.632-5.624,1.792-8.208,0.4C305.624,461.664,304,458.952,304,456V336c0-4.416,3.584-8,8-8h96c4.416,0,8,3.584,8,8v120
	c0,2.952-1.624,5.664-4.224,7.056C410.592,463.688,409.296,464,408,464z M360,416c1.544,0,3.096,0.448,4.44,1.344L400,441.048V344
	h-80v97.048l35.56-23.704C356.904,416.448,358.456,416,360,416z"/>
<path style="fill:#FB9A98;" d="M359.76,191.04c44,0,79.76,35.68,79.76,79.68c0,44.08-35.76,79.76-79.76,79.76
	c-44.08,0-79.76-35.68-79.76-79.76C280,226.72,315.68,191.04,359.76,191.04z"/>
<path style="fill:#BC7372;" d="M304.48,272.24c0-41.52,31.776-75.592,72.4-79.312c-5.52-1.208-11.24-1.888-17.12-1.888
	c-44.08,0-79.76,35.68-79.76,79.68c0,44.08,35.68,79.76,79.76,79.76c2.48,0,4.92-0.152,7.336-0.368
	C331.28,342.272,304.48,310.432,304.48,272.24z"/>
<path style="fill:none;stroke:#132C47;stroke-width:2;stroke-linecap:round;stroke-linejoin:round;stroke-miterlimit:10;" d="
	M359.752,233.688c20.456,0,37.088,16.592,37.088,37.048c0,20.496-16.632,37.088-37.088,37.088"/>
<path style="fill:#132C47;" d="M447.52,270.72c0-48.344-39.368-87.68-87.76-87.68S272,222.368,272,270.72
	c0,45.704,35.136,83.32,79.8,87.36l0.2,25.976c0.032,4.4,3.608,7.944,8,7.944c0.016,0,0.04,0,0.056,0
	c4.416-0.032,7.976-3.264,7.944-7.68l-0.2-26.24C412.432,353.992,447.52,316.392,447.52,270.72z M359.76,342.48
	c-39.568,0-71.76-32.192-71.76-71.76c0-39.52,32.192-71.68,71.76-71.68s71.76,32.16,71.76,71.68
	C431.52,310.288,399.328,342.48,359.76,342.48z"/>
<g>
	<path style="fill:#FCB641;" d="M64,51.2c-4.416,0-8-3.584-8-8V24c0-4.416,3.584-8,8-8s8,3.584,8,8v19.2
		C72,47.616,68.416,51.2,64,51.2z"/>
	<path style="fill:#FCB641;" d="M64,128c-4.416,0-8-3.584-8-8v-19.2c0-4.416,3.584-8,8-8s8,3.584,8,8V120
		C72,124.416,68.416,128,64,128z"/>
	<path style="fill:#FCB641;" d="M112,80H92.8c-4.416,0-8-3.584-8-8s3.584-8,8-8H112c4.416,0,8,3.584,8,8S116.416,80,112,80z"/>
	<path style="fill:#FCB641;" d="M35.2,80H16c-4.416,0-8-3.584-8-8s3.584-8,8-8h19.2c4.416,0,8,3.584,8,8S39.616,80,35.2,80z"/>
	<path style="fill:#FCB641;" d="M97.944,113.944c-2.048,0-4.096-0.784-5.656-2.344L78.712,98.024c-3.128-3.128-3.128-8.184,0-11.312
		s8.184-3.128,11.312,0l13.576,13.576c3.128,3.128,3.128,8.184,0,11.312C102.032,113.16,99.992,113.944,97.944,113.944z"/>
	<path style="fill:#FCB641;" d="M43.64,59.64c-2.048,0-4.096-0.784-5.656-2.344L24.4,43.712c-3.12-3.12-3.12-8.184,0-11.312
		s8.184-3.128,11.312,0l13.576,13.576c3.128,3.128,3.128,8.184,0,11.312C47.728,58.856,45.68,59.64,43.64,59.64z"/>
	<path style="fill:#FCB641;" d="M30.056,113.944c-2.048,0-4.096-0.784-5.656-2.344c-3.128-3.128-3.128-8.184,0-11.312l13.576-13.576
		c3.128-3.128,8.184-3.128,11.312,0s3.128,8.184,0,11.312L35.712,111.6C34.152,113.16,32.104,113.944,30.056,113.944z"/>
	<path style="fill:#FCB641;" d="M84.36,59.64c-2.048,0-4.096-0.784-5.656-2.344c-3.128-3.128-3.128-8.184,0-11.312L92.28,32.408
		c3.128-3.128,8.184-3.128,11.312,0s3.128,8.184,0,11.312L90.016,57.296C88.456,58.856,86.408,59.64,84.36,59.64z"/>
</g>
<g>
</g>
<g>
</g>
<g>
</g>
<g>
</g>
<g>
</g>
<g>
</g>
<g>
</g>
<g>
</g>
<g>
</g>
<g>
</g>
<g>
</g>
<g>
</g>
<g>
</g>
<g>
</g>
<g>
</g>
</svg>
