<?xml version="1.0" encoding="iso-8859-1"?>
<!-- Generator: Adobe Illustrator 19.0.0, SVG Export Plug-In . SVG Version: 6.00 Build 0)  -->
<svg version="1.1" id="Layer_1" xmlns="http://www.w3.org/2000/svg" xmlns:xlink="http://www.w3.org/1999/xlink" x="0px" y="0px"
	 viewBox="0 0 512 512" style="enable-background:new 0 0 512 512;" xml:space="preserve">
<g>
	<path style="fill:#FFD764;" d="M130.726,103.486v49.022c0,9.024,7.316,16.341,16.341,16.341c9.024,0,16.341-7.316,16.341-16.341
		v-49.022H130.726z"/>
	<path style="fill:#FFD764;" d="M381.299,103.486v49.022c0,9.024-7.316,16.341-16.341,16.341s-16.341-7.316-16.341-16.341v-49.022
		H381.299z"/>
</g>
<path style="fill:#FF3B3B;" d="M403.054,409.015v53.968H108.921v-53.968c0,0,32.21-56.06,147.078-56.06
	S403.054,409.015,403.054,409.015z"/>
<g>
	<path style="fill:#CB2E3E;" d="M403.054,343.325v65.69c-14.347-1.601-23.487-6.144-29.958-9.358
		c-5.087-2.527-6.297-3.126-11.798-3.126c-5.491,0-6.7,0.599-11.787,3.126c-7.974,3.965-20.023,9.946-40.863,9.946
		c-20.829,0-32.878-5.981-40.852-9.946c-5.087-2.527-6.297-3.126-11.798-3.126c-5.49,0-6.7,0.599-11.787,3.126
		c-7.974,3.965-20.034,9.946-40.863,9.946s-32.888-5.981-40.863-9.946c-5.087-2.527-6.297-3.126-11.798-3.126
		c-5.49,0-6.7,0.599-11.798,3.126c-6.471,3.214-15.622,7.756-29.969,9.358v-65.69H403.054z"/>
	<polygon style="fill:#CB2E3E;" points="503.822,305.295 503.822,348.598 430.289,348.598 462.97,305.295 	"/>
</g>
<rect x="381.262" y="305.299" style="fill:#FF3B3B;" width="81.704" height="43.303"/>
<polygon style="fill:#CB2E3E;" points="130.708,305.295 130.708,348.598 32.664,348.598 65.346,305.295 "/>
<rect x="8.153" y="305.299" style="fill:#FF3B3B;" width="57.193" height="43.303"/>
<path style="fill:#FF973E;" d="M266.894,179.743h-21.788c-18.05,0-32.681,14.633-32.681,32.681l43.575,32.681l43.575-32.681
	C299.576,194.375,284.943,179.743,266.894,179.743z"/>
<path style="fill:#FFE29E;" d="M413.948,212.425v164.497c-17.267,0-23.204-5.621-32.681-9.499l-43.575-77.499l43.575-77.499
	L413.948,212.425L413.948,212.425z"/>
<path style="fill:#FFF1CF;" d="M381.266,212.425v154.997c-4.968-2.026-10.905-3.573-19.968-3.573
	c-26.319,0-26.319,13.073-52.65,13.073l-32.681-82.248l32.681-82.248H381.266z"/>
<path style="fill:#FFE29E;" d="M308.648,212.425v164.497c-26.319,0-26.319-13.073-52.65-13.073
	c-26.319,0-26.319,13.073-52.65,13.073l-32.681-82.248l32.681-82.248H308.648z"/>
<path style="fill:#FFF1CF;" d="M203.348,212.425v164.497c-26.33,0-26.33-13.073-52.661-13.073s-26.33,13.073-52.661,13.073V212.425
	H203.348z"/>
<path d="M503.83,161.224c-4.512,0-8.17,3.658-8.17,8.17v171.033h-73.523v-26.962h49.012c4.512,0,8.17-3.658,8.17-8.17
	c0-4.512-3.658-8.17-8.17-8.17h-49.012v-84.7c0-4.512-3.658-8.17-8.17-8.17h-40.837v-28.64c9.509-3.373,16.341-12.454,16.341-23.106
	v-49.022c0-4.512-3.658-8.17-8.17-8.17h-32.681c-4.512,0-8.17,3.658-8.17,8.17v49.022c0,10.652,6.832,19.733,16.341,23.106v28.64
	h-49.851c-3.795-18.624-20.301-32.681-40.029-32.681h-2.723v-27.336c21.259-1.407,38.128-19.142,38.128-40.751V70.805
	c0-4.512-3.658-8.17-8.17-8.17c-4.512,0-8.17,3.658-8.17,8.17v32.681c0,12.595-9.55,22.997-21.788,24.356V49.017
	c0-4.512-3.658-8.17-8.17-8.17c-4.512,0-8.17,3.658-8.17,8.17v78.826c-12.238-1.36-21.788-11.761-21.788-24.356V70.805
	c0-4.512-3.658-8.17-8.17-8.17c-4.512,0-8.17,3.658-8.17,8.17v32.681c0,21.61,16.869,39.343,38.128,40.751v27.336h-2.723
	c-19.729,0-36.234,14.057-40.029,32.681h-49.853v-28.64c9.509-3.373,16.341-12.454,16.341-23.106v-49.022
	c0-4.512-3.658-8.17-8.17-8.17h-32.681c-4.512,0-8.17,3.658-8.17,8.17v49.022c0,10.652,6.832,19.733,16.341,23.106v28.64H98.044
	c-4.512,0-8.17,3.658-8.17,8.17v84.7H40.852c-4.512,0-8.17,3.658-8.17,8.17c0,4.512,3.658,8.17,8.17,8.17h49.022v26.962H16.365
	V169.394c0-4.512-3.658-8.17-8.17-8.17s-8.17,3.658-8.17,8.17v178.719C0.015,348.273,0,348.433,0,348.598
	c0,0.164,0.015,0.324,0.024,0.485v113.9c0,4.512,3.658,8.17,8.17,8.17s8.17-3.658,8.17-8.17V356.768h73.509v20.154
	c0,4.512,3.658,8.17,8.17,8.17c0.935,0,1.842-0.015,2.723-0.045v77.936c0,4.512,3.658,8.17,8.17,8.17h294.133
	c4.512,0,8.17-3.658,8.17-8.17v-77.936c0.881,0.029,1.789,0.045,2.723,0.045c4.512,0,8.17-3.658,8.17-8.17v-20.154h73.523v106.215
	c0,4.512,3.658,8.17,8.17,8.17c4.512,0,8.17-3.658,8.17-8.17V169.394C512,164.882,508.342,161.224,503.83,161.224z M356.788,111.657
	h16.341v40.852c0,4.506-3.665,8.17-8.17,8.17s-8.17-3.665-8.17-8.17V111.657z M138.896,111.657h16.341v40.852
	c0,4.506-3.665,8.17-8.17,8.17c-4.506,0-8.17-3.665-8.17-8.17V111.657z M245.119,187.914h21.788
	c10.652,0,19.733,6.832,23.106,16.341h-67.999C225.386,194.744,234.467,187.914,245.119,187.914z M106.215,220.595h299.58v84.51
	c-0.001,0.064-0.01,0.125-0.01,0.19s0.008,0.126,0.01,0.19v42.923c-0.001,0.064-0.01,0.125-0.01,0.19s0.008,0.126,0.01,0.19v19.398
	c-6.099-0.935-10.092-2.918-14.52-5.117c-6.974-3.463-14.88-7.389-29.959-7.389c-15.079,0-22.985,3.926-29.959,7.389
	c-6.141,3.049-11.445,5.683-22.691,5.683c-11.247,0-16.551-2.634-22.693-5.683c-6.974-3.463-14.88-7.389-29.96-7.389
	c-15.079,0-22.985,3.926-29.959,7.389c-6.142,3.049-11.446,5.683-22.692,5.683c-11.248,0-16.553-2.634-22.695-5.684
	c-6.975-3.463-14.882-7.388-29.962-7.388c-15.08,0-22.987,3.926-29.962,7.388c-4.429,2.199-8.424,4.182-14.525,5.118V220.595
	H106.215z M394.901,454.812H117.109v-72.447c4.24-1.365,7.674-3.06,10.898-4.661c6.143-3.05,11.447-5.684,22.695-5.684
	c11.248,0,16.553,2.634,22.695,5.684c6.975,3.463,14.882,7.388,29.962,7.388c15.079,0,22.985-3.926,29.959-7.389
	c6.142-3.049,11.446-5.683,22.692-5.683c11.247,0,16.551,2.634,22.693,5.683c6.974,3.463,14.88,7.389,29.96,7.389
	c15.079,0,22.985-3.926,29.959-7.389c6.142-3.049,11.445-5.683,22.691-5.683s16.549,2.634,22.691,5.683
	c3.224,1.6,6.657,3.295,10.895,4.661v72.448H394.901z"/>
<path d="M203.362,352.41c4.512,0,8.17-3.658,8.17-8.17v-77.346c0-4.512-3.658-8.17-8.17-8.17s-8.17,3.658-8.17,8.17v77.346
	C195.191,348.752,198.849,352.41,203.362,352.41z"/>
<path d="M308.666,303.388c4.512,0,8.17-3.658,8.17-8.17v-28.324c0-4.512-3.658-8.17-8.17-8.17c-4.512,0-8.17,3.658-8.17,8.17v28.324
	C300.495,299.73,304.153,303.388,308.666,303.388z"/>
<path d="M308.666,352.41c4.512,0,8.17-3.658,8.17-8.17v-16.341c0-4.512-3.658-8.17-8.17-8.17c-4.512,0-8.17,3.658-8.17,8.17v16.341
	C300.495,348.752,304.153,352.41,308.666,352.41z"/>
<g>
</g>
<g>
</g>
<g>
</g>
<g>
</g>
<g>
</g>
<g>
</g>
<g>
</g>
<g>
</g>
<g>
</g>
<g>
</g>
<g>
</g>
<g>
</g>
<g>
</g>
<g>
</g>
<g>
</g>
</svg>
